<svg version="1" xmlns="http://www.w3.org/2000/svg" width="682.667" height="682.667" viewBox="0 0 512.000000 512.000000"><path d="M229.5 2.1C185.2 6.3 139.6 24 102.2 51.7c-7.4 5.5-9.8 7.4-18.1 14.8C50.7 96.2 23.4 138.8 10.8 181 2.3 209.4.5 222.7.5 256c0 27.1.6 34 4.6 53.3l2.1 9.7-2.4 2c-1.2 1.1-1.8 1.9-1.2 2 .6 0 1.7-.7 2.4-1.5.7-.9 1.5-1.3 1.7-1.1.3.2 2.8-.9 5.6-2.6 31.8-18.7 70.7-28.1 108.9-26.1 12.1.6 12.4.5 15.3-1.9 9-7.4 29.9-19.3 44-24.8 22.2-8.8 35.8-11.7 68.5-14.3 12.5-1.1 46.1 3 61.7 7.4 28.8 8 59.4 25.2 81.3 45.5 4.4 4.1 4.7 4.2 9 3.4 11.2-2.1 32.7-3.1 45.8-2.1 20.6 1.6 26.1 2.7 50.1 10.2 9.2 2.9 14.2 3.4 8.8.9-1.8-.9-2.6-1.9-2.2-2.9.2-.9 1.3-6.8 2.4-13.1 7.8-46.1 3.6-90.7-12.6-133.9-12-32.2-32.2-63.7-56-87.8-16.7-16.9-26.4-24.9-44.3-36.5C346 10.6 287.9-3.4 229.5 2.1zM285 34.6c38.5 5 78.2 21.4 109.5 45.3 12.4 9.4 30.2 26.8 39.8 38.8 35 43.9 53.4 102.1 49.7 156.7-1 14.1-3.1 30.1-4.2 31.2-.3.3-4.3-.2-8.7-1-4.5-.9-14.5-2.1-22.1-2.7-13.6-1.2-19-1-47.5 1.8l-5.1.5-9.4-8.1c-13.1-11.2-28.1-21.1-43.5-28.6-12.5-6.1-29.8-12.5-37.8-14-3-.6-3.6-1.1-3.2-2.5.6-1.9-2.4-2.9-15-4.9-13.5-2.1-17.2-2.3-21-.7-5.1 2.2-14.8 2.1-16.6 0-1.1-1.4-2.7-1.5-9.9-.9-11.6.9-14.2 1.5-14.7 3.5-.4 1.3-2.7 2.2-9.1 3.5-12.9 2.5-34.1 9.8-46.7 16-6 3-16.2 8.9-22.5 13.2l-11.5 7.8-13.9-.3c-27-.5-50.3 2.9-73.6 10.9-8 2.7-15.2 5.2-16.1 5.5-1.4.5-1.8-.8-2.8-7.3-7.3-48.3-.4-94.3 20.4-136.8C82.3 94.5 145.8 47.3 219 35.6c13.4-2.2 14.4-2.3 35.2-2.4 12.1-.1 22.9.4 30.8 1.4z"/></svg>